<svg xmlns="http://www.w3.org/2000/svg" viewBox="0 0 1200 800" role="img" aria-labelledby="title desc">
  <title id="title">Audio Lecture Placeholder</title>
  <desc id="desc">Illustrated placeholder image for audio lecture content.</desc>
  <defs>
    <linearGradient id="bg" x1="0%" y1="0%" x2="100%" y2="100%">
      <stop offset="0%" stop-color="#0f766e"/>
      <stop offset="100%" stop-color="#0f172a"/>
    </linearGradient>
  </defs>
  <rect width="1200" height="800" fill="url(#bg)"/>
  <rect x="120" y="120" width="960" height="560" rx="40" fill="#ffffff" opacity="0.1"/>
  <rect x="210" y="190" width="300" height="300" rx="150" fill="#14b8a6"/>
  <circle cx="360" cy="340" r="92" fill="#f8fafc"/>
  <polygon points="340,296 416,340 340,384" fill="#14b8a6"/>
  <rect x="580" y="220" width="380" height="52" rx="26" fill="#f8fafc" opacity="0.95"/>
  <rect x="580" y="310" width="420" height="18" rx="9" fill="#99f6e4"/>
  <rect x="580" y="350" width="320" height="18" rx="9" fill="#99f6e4"/>
  <rect x="580" y="430" width="360" height="140" rx="28" fill="#0f172a" opacity="0.55"/>
  <rect x="640" y="490" width="32" height="46" rx="16" fill="#f8fafc"/>
  <rect x="700" y="470" width="32" height="66" rx="16" fill="#ccfbf1"/>
  <rect x="760" y="452" width="32" height="84" rx="16" fill="#f8fafc"/>
  <rect x="820" y="486" width="32" height="50" rx="16" fill="#ccfbf1"/>
</svg>
