<svg xmlns="http://www.w3.org/2000/svg" viewBox="0 0 1200 800" role="img" aria-labelledby="title desc">
  <title id="title">Textbook Learning Placeholder</title>
  <desc id="desc">Illustrated placeholder image for textbook based study content.</desc>
  <defs>
    <linearGradient id="bg" x1="0%" y1="0%" x2="100%" y2="100%">
      <stop offset="0%" stop-color="#0f172a"/>
      <stop offset="100%" stop-color="#4338ca"/>
    </linearGradient>
  </defs>
  <rect width="1200" height="800" fill="url(#bg)"/>
  <rect x="120" y="120" width="960" height="560" rx="40" fill="#ffffff" opacity="0.12"/>
  <rect x="210" y="180" width="340" height="420" rx="24" fill="#ffffff"/>
  <rect x="250" y="240" width="260" height="22" rx="11" fill="#c7d2fe"/>
  <rect x="250" y="290" width="220" height="18" rx="9" fill="#cbd5e1"/>
  <rect x="250" y="330" width="240" height="18" rx="9" fill="#cbd5e1"/>
  <rect x="250" y="370" width="190" height="18" rx="9" fill="#cbd5e1"/>
  <rect x="610" y="210" width="360" height="260" rx="30" fill="#312e81"/>
  <circle cx="710" cy="340" r="54" fill="#f8fafc"/>
  <rect x="790" y="288" width="120" height="20" rx="10" fill="#c7d2fe"/>
  <rect x="790" y="330" width="90" height="20" rx="10" fill="#e0e7ff"/>
  <rect x="650" y="520" width="280" height="22" rx="11" fill="#f8fafc" opacity="0.92"/>
  <rect x="650" y="560" width="210" height="18" rx="9" fill="#cbd5e1" opacity="0.9"/>
</svg>
